HIERARCHY
ROOT Hips
{
	OFFSET 0.000000 0.000000 0.000000
	CHANNELS 6 Xposition Yposition Zposition Yrotation Xrotation Zrotation
	JOINT Chest
	{
		OFFSET 0.000000 -0.009281 11.569106
		CHANNELS 3 Yrotation Xrotation Zrotation
		JOINT Chest2
		{
			OFFSET -0.000000 0.016865 9.269641
			CHANNELS 3 Yrotation Xrotation Zrotation
			JOINT Chest3
			{
				OFFSET -0.000000 0.000001 8.374491
				CHANNELS 3 Yrotation Xrotation Zrotation
				JOINT Chest4
				{
					OFFSET -0.000000 0.000001 8.374493
					CHANNELS 3 Yrotation Xrotation Zrotation
					JOINT Neck
					{
						OFFSET -0.000000 0.000002 12.152554
						CHANNELS 3 Yrotation Xrotation Zrotation
						JOINT Head
						{
							OFFSET -0.000000 0.040101 7.802319
							CHANNELS 3 Yrotation Xrotation Zrotation
							End Site
							{
								OFFSET -0.000000 0.020947 14.853096
							}
						}
					}
					JOINT RightCollar
					{
						OFFSET 2.894404 0.000001 6.791374
						CHANNELS 3 Yrotation Xrotation Zrotation
						JOINT RightShoulder
						{
							OFFSET 13.574684 0.000001 0.000000
							CHANNELS 3 Yrotation Xrotation Zrotation
							JOINT RightElbow
							{
								OFFSET 23.923903 0.000002 0.000000
								CHANNELS 3 Yrotation Xrotation Zrotation
								JOINT RightWrist
								{
									OFFSET 19.846718 0.012767 0.000000
									CHANNELS 3 Yrotation Xrotation Zrotation
									End Site
									{
										OFFSET 14.973145 0.000001 0.000000
									}
								}
							}
						}
					}
					JOINT LeftCollar
					{
						OFFSET -2.894404 0.000001 6.791374
						CHANNELS 3 Yrotation Xrotation Zrotation
						JOINT LeftShoulder
						{
							OFFSET -13.574684 -0.000001 0.000000
							CHANNELS 3 Yrotation Xrotation Zrotation
							JOINT LeftElbow
							{
								OFFSET -23.923903 -0.000002 0.000000
								CHANNELS 3 Yrotation Xrotation Zrotation
								JOINT LeftWrist
								{
									OFFSET -19.846718 0.012763 0.000000
									CHANNELS 3 Yrotation Xrotation Zrotation
									End Site
									{
										OFFSET -14.973145 -0.000001 0.000000
									}
								}
							}
						}
					}
				}
			}
		}
	}
	JOINT RightHip
	{
		OFFSET 9.469263 0.004643 0.045487
		CHANNELS 3 Yrotation Xrotation Zrotation
		JOINT RightKnee
		{
			OFFSET 0.000000 0.002661 -40.478676
			CHANNELS 3 Yrotation Xrotation Zrotation
			JOINT RightAnkle
			{
				OFFSET 0.000000 0.049106 -35.224068
				CHANNELS 3 Yrotation Xrotation Zrotation
				JOINT RightToe
				{
					OFFSET -0.000001 12.539529 -6.151390
					CHANNELS 3 Yrotation Xrotation Zrotation
					End Site
					{
						OFFSET -0.000001 5.044994 -1.291870
					}
				}
			}
		}
	}
	JOINT LeftHip
	{
		OFFSET -9.469263 0.004641 0.045487
		CHANNELS 3 Yrotation Xrotation Zrotation
		JOINT LeftKnee
		{
			OFFSET 0.000000 0.002661 -40.478676
			CHANNELS 3 Yrotation Xrotation Zrotation
			JOINT LeftAnkle
			{
				OFFSET 0.000000 0.049106 -35.224068
				CHANNELS 3 Yrotation Xrotation Zrotation
				JOINT LeftToe
				{
					OFFSET -0.000001 12.539529 -6.151390
					CHANNELS 3 Yrotation Xrotation Zrotation
					End Site
					{
						OFFSET -0.000001 5.044994 -1.291870
					}
				}
			}
		}
	}
}
MOTION
Frames: 12
Frame Time: 0.016667
-10.760427 -57.264908 83.491005 -1.234132 0.107109 -117.412769 -1.757575 -3.610146 2.444715 -0.764097 -1.644042 1.110931 -0.764097 -1.644042 1.110936 -0.570047 -1.234427 0.831090 0.900196 -12.386800 -2.918321 0.486131 13.161944 -5.186040 10.624693 6.062794 -1.496115 43.996203 -16.054932 -15.679005 -28.712234 -60.632382 86.057617 -45.948127 42.258380 50.700341 -7.969496 6.111206 -6.008002 -41.407588 -7.130142 22.409859 -4.067971 -64.090896 -59.117965 30.804887 16.359966 -74.451050 -2.537091 5.068173 -0.064504 0.545421 -20.816844 -4.219020 -2.151182 8.428614 -8.293057 1.097147 0.766532 0.008243 2.911591 -2.287545 6.957350 0.560890 -5.136786 7.508974 1.128313 0.926500 11.546799 -0.021826 -0.210652 -0.034363 
-11.322412 -57.414608 83.408722 -1.041951 0.329012 -117.067844 -1.874925 -3.465771 2.292194 -0.763576 -1.581110 1.045134 -0.763576 -1.581109 1.045136 -0.569944 -1.187146 0.781831 0.932676 -12.409050 -2.910456 0.552176 13.121996 -5.156786 10.622670 6.271852 -1.574776 43.940765 -15.853264 -15.929815 -29.014558 -60.703149 86.413538 -45.859270 42.029371 50.754046 -7.978440 6.100025 -6.049840 -41.328785 -7.188954 22.482517 -3.920243 -64.171369 -59.336715 30.807906 16.272345 -74.485255 -2.128146 5.550392 4.419751 -0.539453 -20.831104 -1.628856 -1.710277 8.219188 -8.696362 1.127510 0.553607 0.010701 2.812175 -1.556630 4.807775 0.785306 -5.099035 6.130593 -0.379287 0.843177 10.086018 1.149354 -0.178060 0.002991 
-11.677052 -57.499676 83.343834 -0.884906 0.453130 -116.803215 -1.947496 -3.404169 2.192788 -0.758678 -1.538870 0.999576 -0.758679 -1.538869 0.999574 -0.566459 -1.155398 0.747726 0.973943 -12.375998 -2.915998 0.627310 13.184680 -5.150767 10.633468 6.502764 -1.602967 43.880287 -15.543849 -16.159073 -29.592788 -60.755004 87.003476 -45.721075 41.766313 50.869364 -8.061262 6.185521 -6.071119 -41.170406 -7.487997 22.554808 -3.831032 -64.226775 -59.484056 30.926793 16.491934 -74.631797 -1.563080 6.009579 9.501724 -1.540907 -20.906383 0.546738 -1.365991 8.073739 -8.845101 1.262623 0.338134 0.017851 2.365592 -1.219393 1.647301 1.310662 -4.051816 3.223788 -2.286854 0.352933 9.174255 2.506226 -0.305719 0.031526 
-12.035067 -57.665722 83.278625 -0.728720 0.455983 -116.740883 -1.908178 -3.404363 2.213112 -0.750861 -1.520049 0.983953 -0.750861 -1.520049 0.983953 -0.560667 -1.141251 0.736057 1.001532 -12.307873 -2.928760 0.672082 13.311801 -5.165118 10.625286 6.541596 -1.563699 43.884799 -15.296017 -16.162186 -30.331938 -60.687187 87.607394 -45.598404 41.678047 51.012504 -8.191744 6.332951 -6.041815 -41.057896 -7.826955 22.622022 -3.779549 -64.258037 -59.506418 31.086636 16.859221 -74.714599 -0.908853 6.409285 14.021534 -2.560819 -21.118878 2.756193 -1.130406 7.992935 -8.453210 1.432476 0.260925 0.053320 1.782785 -0.827825 -2.273170 1.885479 -3.401627 -0.527726 -4.380638 0.196094 8.871481 3.788732 -0.431028 0.055701 
-12.386265 -57.811436 83.202293 -0.617435 0.501838 -116.787533 -1.907118 -3.431718 2.281030 -0.753476 -1.517790 0.992810 -0.753476 -1.517788 0.992812 -0.562610 -1.139571 0.742695 1.024569 -12.224390 -2.956511 0.701280 13.466922 -5.210365 10.583596 6.349658 -1.576618 43.936524 -15.284753 -15.863668 -30.955015 -60.475567 88.038277 -45.550538 41.772979 51.123426 -8.161729 6.238345 -6.003953 -41.132294 -7.821961 22.557381 -3.822442 -64.215697 -59.405065 31.121723 17.051589 -74.695154 -0.499001 6.952211 17.072976 -3.378904 -21.487654 4.738473 -0.848600 8.049045 -7.047608 1.372842 0.207910 0.058866 0.989915 -0.084424 -6.465975 2.413895 -3.714233 -3.616601 -6.608722 0.346053 7.570668 4.962465 -0.416363 0.035021 
-12.681808 -57.865707 83.107185 -0.602316 0.495876 -116.897281 -1.885602 -3.527136 2.379299 -0.768035 -1.532451 1.014771 -0.768034 -1.532450 1.014768 -0.573448 -1.150619 0.759108 1.050733 -12.153062 -2.993314 0.733022 13.599387 -5.271280 10.533477 6.219739 -1.692015 43.969145 -15.639245 -15.532687 -31.222738 -60.253948 88.216886 -45.639642 41.902845 51.136281 -8.022511 6.007910 -6.037032 -41.291581 -7.510716 22.477126 -3.952299 -64.114965 -59.294211 31.115333 16.889769 -74.706212 -0.444596 7.327252 18.599449 -3.896538 -21.543918 5.913821 -0.232803 8.155731 -4.448155 0.975541 0.083823 0.013313 0.329923 0.460963 -10.313883 2.955670 -4.108360 -5.170608 -9.151083 0.113083 4.509922 5.967605 -0.242925 0.111053 
-12.750830 -57.830162 82.994591 -0.824723 0.520249 -116.931527 -1.976741 -3.770483 2.381178 -0.792693 -1.561420 1.044276 -0.792694 -1.561421 1.044281 -0.591817 -1.172426 0.781137 1.079219 -12.093875 -3.030088 0.769615 13.709405 -5.330864 10.497189 6.139452 -1.777686 43.899217 -15.981149 -15.305506 -31.168366 -60.246298 88.242513 -45.791415 41.983114 51.058242 -7.929516 5.976939 -6.031787 -41.330069 -7.269931 22.461062 -3.716981 -64.078232 -59.636526 31.055651 16.444123 -74.685926 -0.859856 7.140731 18.297974 -4.568539 -21.025535 6.898082 0.948970 8.557543 -1.061450 0.264191 -0.334559 -0.141408 -0.196546 0.705477 -13.212943 3.307780 -4.449829 -5.686626 -11.343094 -0.593144 0.860979 6.446256 0.061726 0.217498 
-12.622028 -57.816124 82.860924 -1.179757 0.462997 -116.881940 -2.057896 -4.128598 2.336134 -0.833031 -1.611867 1.083263 -0.833031 -1.611865 1.083265 -0.621877 -1.210382 0.810201 1.132052 -12.020371 -3.078085 0.847389 13.846597 -5.401869 10.478463 6.080549 -1.841201 43.798311 -16.086846 -15.213517 -30.967084 -60.474625 88.205288 -45.989791 41.998242 50.921318 -7.854819 6.009931 -6.038036 -41.174013 -7.091344 22.353211 -3.074714 -64.157545 -60.452925 30.976660 15.835334 -74.610746 -1.415799 6.221408 16.862421 -5.309207 -19.650200 8.023920 2.500086 9.092834 1.843789 -0.617634 -1.068028 -0.242966 -0.380892 0.905096 -14.925183 3.327813 -5.162924 -5.356499 -12.435905 -1.369556 -2.398421 6.016989 0.509369 0.333612 
-12.507554 -57.921227 82.712425 -1.320197 0.339167 -116.884112 -2.016527 -4.310680 2.385574 -0.882686 -1.686154 1.133244 -0.882687 -1.686153 1.133247 -0.658843 -1.266261 0.847436 1.207711 -11.907298 -3.136837 0.962735 14.057818 -5.484581 10.465430 6.081999 -1.881584 43.808564 -16.044825 -15.311590 -30.687886 -60.724876 88.041268 -46.130637 41.962039 50.818766 -7.767630 5.984935 -6.098485 -40.890864 -7.009345 22.054254 -2.405877 -64.311463 -61.347557 30.936065 15.403004 -74.519939 -1.701052 5.257123 15.857012 -5.473765 -18.098485 8.424357 3.600548 9.668018 3.374363 -1.247546 -1.858781 -0.141291 -0.043980 1.187280 -14.958857 3.230078 -5.848228 -4.597012 -12.423711 -2.071560 -5.256926 4.745440 0.929885 0.404955 
-12.557009 -58.214573 82.596832 -1.009016 0.205767 -117.013626 -1.835044 -4.162119 2.552248 -0.917615 -1.747118 1.188614 -0.917615 -1.747117 1.188618 -0.684763 -1.312133 0.888771 1.280873 -11.758055 -3.190401 1.074199 14.336232 -5.559244 10.479389 5.988165 -1.820744 43.957561 -15.900667 -15.461690 -30.366287 -60.814754 87.674589 -46.209184 41.949478 50.798118 -7.813695 6.123923 -6.201045 -40.569018 -7.288975 21.805920 -2.126642 -64.403882 -61.795474 30.977326 15.383060 -74.581062 -1.567298 4.931803 15.640778 -5.039118 -17.094336 7.533569 3.598538 9.948128 4.377651 -1.171424 -2.175871 0.112314 0.785383 1.530481 -13.163293 3.282677 -5.765539 -4.816481 -11.643800 -2.298684 -7.264311 2.890561 0.791531 0.295272 
-12.634985 -58.480598 82.525864 -0.938966 0.146328 -117.201716 -1.872950 -4.195474 2.721899 -0.917294 -1.804038 1.242752 -0.917294 -1.804038 1.242752 -0.684248 -1.354903 0.929282 1.312945 -11.645064 -3.217268 1.119834 14.546491 -5.599588 10.566697 5.879990 -1.636760 44.104956 -15.774194 -15.564833 -29.983468 -60.829105 87.133563 -46.278725 42.026318 50.824066 -8.062861 6.502591 -6.252602 -40.399893 -7.889685 21.747787 -2.074404 -64.364370 -61.676519 30.957839 15.850224 -74.878326 -1.055313 4.876817 15.552682 -5.634163 -17.128724 6.269077 4.123529 10.255184 6.048815 -1.037096 -2.082800 0.034265 1.388614 1.273791 -10.739532 3.472060 -5.003270 -6.240378 -10.237566 -2.165632 -7.854767 0.823233 0.459989 0.163386 
-12.828965 -58.747189 82.489639 -0.938792 -0.009325 -117.547679 -1.839625 -4.219623 2.953518 -0.895498 -1.880399 1.273514 -0.895497 -1.880396 1.273516 -0.667646 -1.412173 0.952296 1.295999 -11.605810 -3.193275 1.096300 14.619291 -5.561911 10.619374 5.705577 -1.498182 44.122349 -15.670390 -15.415911 -29.851871 -60.866234 86.939654 -46.330010 42.120110 50.835875 -8.115539 6.483273 -6.143878 -40.655250 -8.131867 21.602046 -1.841828 -64.191122 -61.406249 30.873206 16.550303 -75.252921 -0.446814 5.151253 15.834298 -5.805738 -17.736193 5.680452 4.219542 10.316954 6.511579 -0.968394 -1.662832 0.091418 1.683075 0.880691 -9.161043 3.744689 -4.569712 -7.867406 -8.697311 -1.269082 -6.759951 -0.884127 -0.077821 -0.010195 
